<svg xmlns="http://www.w3.org/2000/svg"  viewBox="0 0 64 64" width="64px" height="64px"><path fill="#f7a1c8" d="M27,36.88v12.91c0,1.14-0.9,1.9-2,1.75c-6-0.85-9-1.25-15-1.48c-1.1-0.04-2-0.94-2-2.04V36.01	c0-1.11,0.9-2,2-1.98c6,0.1,9,0.24,15,0.53C26.1,34.61,27,35.65,27,36.88z"/><path fill="#97e0bb" d="M55,12.15v14.5c0,1.42-0.9,2.59-2,2.6c-14.33-0.05-28.67-0.21-43-0.26c-1.1,0-2-0.89-2-2v-12	c0-1.1,0.9-2.01,2-2.03c14.35-0.76,28.65-2.15,43-2.9C54.1,10.03,55,10.94,55,12.15z"/><path fill="#ffeb9b" d="M41,40.222c0-0.965,0-1.451,0-2.426c0-1.346-0.895-2.486-2-2.538c-2-0.094-3-0.145-5-0.247	c-1.105-0.056-2,0.933-2,2.203c0,0.92,0,1.378,0,2.291c0,1.26,0.895,2.358,2,2.465c2,0.195,3,0.292,5,0.473	C40.105,42.543,41,41.555,41,40.222z"/><path fill="#ace3ff" d="M55,40.911c0-1.017,0-1.531,0-2.562c0-1.424-0.895-2.598-2-2.615c-2-0.032-3-0.056-5-0.117	c-1.105-0.034-2,1.065-2,2.447c0,1.001,0,1.5,0,2.49c0,1.367,0.895,2.519,2,2.586c2,0.121,3,0.171,5,0.238	C54.105,43.414,55,42.316,55,40.911z"/><path fill="#8a8e99" d="M41,51.737c0-0.862,0-1.301,0-2.191c0-1.229-0.895-2.352-2-2.478c-2-0.229-3-0.351-5-0.598	c-1.105-0.136-2,0.734-2,1.917c0,0.857,0,1.281,0,2.117c0,1.155,0.895,2.198,2,2.363c2,0.298,3,0.446,5,0.72	C40.105,53.739,41,52.927,41,51.737z"/><path fill="#b6b6ef" d="M55,52.85c0-0.872,0-1.318,0-2.229c0-1.258-0.895-2.341-2-2.386c-2-0.081-3-0.143-5-0.293	c-1.105-0.083-2,0.885-2,2.132c0,0.903,0,1.348,0,2.219c0,1.203,0.895,2.225,2,2.318c2,0.168,3,0.234,5,0.309	C54.105,54.963,55,54.054,55,52.85z"/><path fill="#f283a5" d="M27,48.07v1.72c0,1.14-0.9,1.9-2,1.75c-6-0.85-9-1.25-15-1.48c-1.1-0.04-2-0.94-2-2.04V46.6	c0.63-0.36,1.36-0.56,2.15-0.53c6.11,0.23,9.14,0.62,15.41,1.5C26.08,47.64,26.57,47.82,27,48.07z"/><path fill="#72caaf" d="M55,25.78v0.87c0,1.42-0.9,2.59-2,2.6c-14.33-0.05-28.67-0.21-43-0.26c-1.1,0-2-0.89-2-2v-1.46	c0.59-0.34,1.27-0.54,2-0.54h0.01c7.18,0.02,14.35,0.08,21.52,0.13c7.16,0.05,14.32,0.1,21.48,0.13	C53.74,25.25,54.42,25.44,55,25.78z"/><path fill="#8d6c9f" d="M25.287,52.556c-0.14,0-0.282-0.01-0.426-0.03l0,0c-6.094-0.854-9.035-1.242-14.898-1.463	C8.301,51,7,49.661,7,48.016V36.012c0-0.809,0.315-1.564,0.889-2.129c0.559-0.55,1.296-0.852,2.08-0.852c0.016,0,0.031,0,0.046,0	c5.948,0.095,8.907,0.229,15.033,0.524C26.676,33.635,28,35.125,28,36.878v12.913c0,0.84-0.33,1.589-0.928,2.108	C26.578,52.329,25.956,52.556,25.287,52.556z M9.969,35.031c-0.255,0-0.495,0.098-0.677,0.276C9.104,35.493,9,35.743,9,36.012	v12.004c0,0.557,0.466,1.026,1.038,1.049c5.961,0.224,8.938,0.615,15.101,1.48c0,0,0,0,0.001,0c0.244,0.034,0.466-0.021,0.62-0.154	c0.157-0.137,0.24-0.344,0.24-0.6V36.878c0-0.69-0.48-1.297-1.049-1.324c-6.103-0.294-9.051-0.428-14.967-0.522	C9.979,35.031,9.974,35.031,9.969,35.031z"/><path fill="#8d6c9f" d="M53.002,30.245c-7.174-0.024-14.342-0.076-21.509-0.128c-7.166-0.052-14.331-0.104-21.496-0.127	c-0.002,0-0.004,0-0.006,0c-0.794,0-1.546-0.311-2.111-0.875C7.313,28.548,7,27.794,7,26.991V14.987c0-1.631,1.335-2.99,2.977-3.029	c7.137-0.375,14.413-0.921,21.449-1.447c7.047-0.528,14.333-1.073,21.521-1.452c0.824,0.013,1.56,0.273,2.124,0.825	C55.67,10.469,56,11.272,56,12.147v14.501C56,28.629,54.655,30.242,53.002,30.245z M9.998,27.99	c7.174,0.024,14.342,0.076,21.509,0.128c7.166,0.052,14.331,0.104,21.496,0.127C53.471,28.244,54,27.562,54,26.648V12.147	c0-0.331-0.116-0.627-0.326-0.833c-0.125-0.122-0.334-0.252-0.65-0.257c-7.137,0.375-14.413,0.921-21.449,1.447	c-7.047,0.528-14.333,1.073-21.521,1.452C9.459,13.972,9,14.433,9,14.987v12.004c0,0.268,0.104,0.52,0.293,0.708	c0.188,0.188,0.438,0.291,0.703,0.291C9.997,27.99,9.998,27.99,9.998,27.99z"/><path fill="#8d6c9f" d="M39.153,43.45c-0.081,0-0.162-0.004-0.243-0.011c-2.003-0.182-3.005-0.279-5.008-0.475	C32.275,42.807,31,41.287,31,39.505v-2.291c0-0.94,0.365-1.826,1.002-2.431c0.563-0.536,1.298-0.801,2.049-0.771	c1.999,0.102,2.998,0.152,4.996,0.247C40.675,34.335,42,35.922,42,37.796v2.427c0,0.995-0.38,1.912-1.041,2.517	C40.452,43.202,39.818,43.45,39.153,43.45z M33.911,36.009c-0.243,0-0.423,0.12-0.532,0.225C33.138,36.462,33,36.819,33,37.214	v2.291c0,0.738,0.502,1.412,1.097,1.47c1.998,0.195,2.996,0.291,4.994,0.473c0.186,0.017,0.366-0.044,0.519-0.185	C39.857,41.036,40,40.657,40,40.223v-2.427c0-0.878-0.552-1.516-1.047-1.539c-2.002-0.095-3.003-0.146-5.004-0.247	C33.937,36.009,33.924,36.009,33.911,36.009z"/><path fill="#8d6c9f" d="M53.054,44.378c-0.029,0-0.059-0.001-0.087-0.002c-2.065-0.069-3.066-0.12-5.027-0.239	C46.291,44.038,45,42.464,45,40.553v-2.489c0-1.036,0.386-2.005,1.059-2.657c0.55-0.532,1.262-0.793,1.973-0.79	c1.993,0.061,2.99,0.085,4.984,0.117C54.661,34.76,56,36.382,56,38.349v2.563c0,1.051-0.388,2.028-1.064,2.683	C54.41,44.102,53.745,44.378,53.054,44.378z M47.95,36.615c-0.177,0-0.344,0.076-0.499,0.227C47.169,37.116,47,37.572,47,38.063	v2.489c0,0.898,0.559,1.558,1.06,1.588c1.941,0.117,2.933,0.168,4.974,0.237c0.178-0.007,0.354-0.069,0.512-0.223	C53.83,41.88,54,41.415,54,40.911v-2.563c0-0.942-0.535-1.607-1.016-1.615c-2.006-0.032-3.009-0.057-5.015-0.117	C47.963,36.615,47.957,36.615,47.95,36.615z"/><path fill="#8d6c9f" d="M39.267,54.606c-0.133,0-0.267-0.009-0.402-0.027c-2.005-0.274-3.007-0.423-5.012-0.723	c-1.6-0.237-2.853-1.71-2.853-3.352v-2.118c0-0.882,0.356-1.702,0.978-2.252c0.59-0.522,1.351-0.759,2.145-0.657	c1.997,0.246,2.995,0.369,4.991,0.598C40.705,46.257,42,47.813,42,49.547v2.19c0,0.886-0.341,1.671-0.961,2.211	C40.545,54.379,39.927,54.606,39.267,54.606z M33.774,47.456c-0.222,0-0.377,0.093-0.472,0.177C33.11,47.803,33,48.078,33,48.387	v2.118c0,0.652,0.525,1.281,1.146,1.373c1.996,0.298,2.994,0.446,4.989,0.719c0.226,0.034,0.435-0.021,0.589-0.155	C39.902,52.286,40,52.036,40,51.737v-2.19c0-0.724-0.521-1.417-1.113-1.485c-2.004-0.229-3.006-0.352-5.01-0.6	C33.842,47.458,33.808,47.456,33.774,47.456z"/><path fill="#8d6c9f" d="M53.074,55.922c-0.037,0-0.074,0-0.112-0.002c-2.078-0.078-3.082-0.146-5.046-0.313	C46.281,55.471,45,54.015,45,52.294v-2.22c0-0.931,0.366-1.804,1.004-2.396c0.572-0.53,1.316-0.785,2.071-0.733	c1.948,0.146,2.938,0.208,4.965,0.29C54.673,47.302,56,48.82,56,50.621v2.229c0,0.881-0.333,1.687-0.938,2.27	C54.521,55.64,53.819,55.922,53.074,55.922z M47.87,48.938c-0.231,0-0.401,0.11-0.506,0.207C47.133,49.359,47,49.698,47,50.074v2.22	c0,0.678,0.486,1.271,1.084,1.321c1.929,0.162,2.915,0.229,4.953,0.307c0.309-0.005,0.516-0.126,0.638-0.244	C53.885,53.476,54,53.182,54,52.85v-2.229c0-0.717-0.486-1.365-1.041-1.388c-2.055-0.083-3.06-0.146-5.033-0.294	C47.906,48.938,47.888,48.938,47.87,48.938z"/><path fill="#8d6c9f" d="M12.367,20.205c-0.518,0-0.956-0.398-0.996-0.924l-0.153-1.993 c-0.042-0.551,0.37-1.032,0.921-1.074c0.544-0.043,1.031,0.37,1.073,0.921l0.153,1.993c0.042,0.551-0.37,1.032-0.92,1.074 C12.419,20.204,12.393,20.205,12.367,20.205z"/><path fill="#8d6c9f" d="M17.107,19.841c-0.518,0-0.955-0.398-0.996-0.923l-0.154-1.994 c-0.043-0.551,0.369-1.031,0.92-1.074c0.567-0.045,1.031,0.37,1.074,0.92l0.154,1.994c0.043,0.551-0.369,1.031-0.92,1.074 C17.159,19.84,17.133,19.841,17.107,19.841z"/><path fill="#8d6c9f" d="M21.847,19.477c-0.518,0-0.956-0.398-0.996-0.924l-0.153-1.993c-0.042-0.551,0.37-1.032,0.92-1.074 c0.567-0.046,1.032,0.369,1.074,0.921l0.153,1.993c0.042,0.551-0.37,1.032-0.921,1.074C21.898,19.476,21.872,19.477,21.847,19.477 z"/><path fill="#8d6c9f" d="M26.586,19.111c-0.518,0-0.956-0.398-0.996-0.924l-0.153-1.993 c-0.042-0.551,0.37-1.032,0.921-1.074c0.547-0.046,1.031,0.369,1.073,0.921l0.153,1.993c0.042,0.551-0.37,1.032-0.92,1.074 C26.638,19.11,26.611,19.111,26.586,19.111z"/><path fill="#8d6c9f" d="M31.326,18.747c-0.518,0-0.955-0.398-0.996-0.923l-0.154-1.994 c-0.043-0.551,0.369-1.031,0.92-1.074c0.56-0.047,1.031,0.369,1.074,0.92l0.154,1.994c0.043,0.551-0.369,1.031-0.92,1.074 C31.378,18.746,31.352,18.747,31.326,18.747z"/><path fill="#8d6c9f" d="M36.065,18.383c-0.518,0-0.956-0.398-0.996-0.924l-0.153-1.993c-0.042-0.551,0.37-1.032,0.92-1.074 c0.57-0.038,1.032,0.369,1.074,0.921l0.153,1.993c0.042,0.551-0.37,1.032-0.921,1.074C36.117,18.382,36.091,18.383,36.065,18.383z"/><path fill="#8d6c9f" d="M40.805,18.018c-0.518,0-0.956-0.398-0.996-0.924l-0.153-1.993 c-0.042-0.551,0.37-1.032,0.921-1.074c0.55-0.038,1.031,0.369,1.073,0.921l0.153,1.993c0.042,0.551-0.37,1.032-0.92,1.074 C40.856,18.017,40.83,18.018,40.805,18.018z"/><path fill="#8d6c9f" d="M45.545,17.653c-0.518,0-0.955-0.398-0.996-0.923l-0.154-1.994 c-0.043-0.551,0.369-1.031,0.92-1.074c0.573-0.039,1.031,0.37,1.074,0.92l0.154,1.994c0.043,0.551-0.369,1.031-0.92,1.074 C45.597,17.652,45.57,17.653,45.545,17.653z"/><path fill="#8d6c9f" d="M50.284,17.289c-0.518,0-0.956-0.398-0.996-0.924l-0.153-1.993c-0.042-0.551,0.37-1.032,0.92-1.074 c0.573-0.04,1.032,0.37,1.074,0.921l0.153,1.993c0.042,0.551-0.37,1.032-0.921,1.074C50.336,17.288,50.31,17.289,50.284,17.289z"/></svg>